<?xml version="1.0" encoding="UTF-8"?>
<svg width="26px" height="22px" viewBox="0 0 26 22" version="1.1" xmlns="http://www.w3.org/2000/svg" xmlns:xlink="http://www.w3.org/1999/xlink">
    <title>Artboard</title>
    <g id="Artboard" stroke="none" stroke-width="1" fill="none" fill-rule="evenodd">
        <path d="M2.8046875,6.59765625 C3.296875,6.59765625 3.71875,6.421875 4.0703125,6.0703125 C4.421875,5.71875 4.59765625,5.296875 4.59765625,4.8046875 C4.59765625,4.3046875 4.421875,3.87890625 4.0703125,3.52734375 C3.71875,3.17578125 3.296875,3 2.8046875,3 C2.3046875,3 1.87890625,3.17578125 1.52734375,3.52734375 C1.17578125,3.87890625 1,4.3046875 1,4.8046875 C1,5.296875 1.17578125,5.71875 1.52734375,6.0703125 C1.87890625,6.421875 2.3046875,6.59765625 2.8046875,6.59765625 Z M24.4023438,5.40234375 C24.5664062,5.40234375 24.7070312,5.34375 24.8242188,5.2265625 C24.9414062,5.109375 25,4.96875 25,4.8046875 C25,4.6328125 24.9414062,4.48828125 24.8242188,4.37109375 C24.7070312,4.25390625 24.5664062,4.1953125 24.4023438,4.1953125 L24.4023438,4.1953125 L6.40234375,4.1953125 C6.23828125,4.1953125 6.09765625,4.25390625 5.98046875,4.37109375 C5.86328125,4.48828125 5.8046875,4.6328125 5.8046875,4.8046875 C5.8046875,4.96875 5.86328125,5.109375 5.98046875,5.2265625 C6.09765625,5.34375 6.23828125,5.40234375 6.40234375,5.40234375 L6.40234375,5.40234375 L24.4023438,5.40234375 Z M2.8046875,5.40234375 C2.6328125,5.40234375 2.48828125,5.34375 2.37109375,5.2265625 C2.25390625,5.109375 2.1953125,4.96875 2.1953125,4.8046875 C2.1953125,4.6328125 2.25390625,4.48828125 2.37109375,4.37109375 C2.48828125,4.25390625 2.6328125,4.1953125 2.8046875,4.1953125 C2.96875,4.1953125 3.109375,4.25390625 3.2265625,4.37109375 C3.34375,4.48828125 3.40234375,4.6328125 3.40234375,4.8046875 C3.40234375,4.96875 3.34375,5.109375 3.2265625,5.2265625 C3.109375,5.34375 2.96875,5.40234375 2.8046875,5.40234375 Z M2.8046875,12.5976562 C3.296875,12.5976562 3.71875,12.421875 4.0703125,12.0703125 C4.421875,11.71875 4.59765625,11.296875 4.59765625,10.8046875 C4.59765625,10.3046875 4.421875,9.87890625 4.0703125,9.52734375 C3.71875,9.17578125 3.296875,9 2.8046875,9 C2.3046875,9 1.87890625,9.17578125 1.52734375,9.52734375 C1.17578125,9.87890625 1,10.3046875 1,10.8046875 C1,11.296875 1.17578125,11.71875 1.52734375,12.0703125 C1.87890625,12.421875 2.3046875,12.5976562 2.8046875,12.5976562 Z M24.4023438,11.4023438 C24.5664062,11.4023438 24.7070312,11.34375 24.8242188,11.2265625 C24.9414062,11.109375 25,10.96875 25,10.8046875 C25,10.6328125 24.9414062,10.4882812 24.8242188,10.3710938 C24.7070312,10.2539062 24.5664062,10.1953125 24.4023438,10.1953125 L24.4023438,10.1953125 L6.40234375,10.1953125 C6.23828125,10.1953125 6.09765625,10.2539062 5.98046875,10.3710938 C5.86328125,10.4882812 5.8046875,10.6328125 5.8046875,10.8046875 C5.8046875,10.96875 5.86328125,11.109375 5.98046875,11.2265625 C6.09765625,11.34375 6.23828125,11.4023438 6.40234375,11.4023438 L6.40234375,11.4023438 L24.4023438,11.4023438 Z M2.8046875,11.4023438 C2.6328125,11.4023438 2.48828125,11.34375 2.37109375,11.2265625 C2.25390625,11.109375 2.1953125,10.96875 2.1953125,10.8046875 C2.1953125,10.6328125 2.25390625,10.4882812 2.37109375,10.3710938 C2.48828125,10.2539062 2.6328125,10.1953125 2.8046875,10.1953125 C2.96875,10.1953125 3.109375,10.2539062 3.2265625,10.3710938 C3.34375,10.4882812 3.40234375,10.6328125 3.40234375,10.8046875 C3.40234375,10.96875 3.34375,11.109375 3.2265625,11.2265625 C3.109375,11.34375 2.96875,11.4023438 2.8046875,11.4023438 Z M2.8046875,18.5976562 C3.296875,18.5976562 3.71875,18.421875 4.0703125,18.0703125 C4.421875,17.71875 4.59765625,17.296875 4.59765625,16.8046875 C4.59765625,16.3046875 4.421875,15.8789062 4.0703125,15.5273438 C3.71875,15.1757812 3.296875,15 2.8046875,15 C2.3046875,15 1.87890625,15.1757812 1.52734375,15.5273438 C1.17578125,15.8789062 1,16.3046875 1,16.8046875 C1,17.296875 1.17578125,17.71875 1.52734375,18.0703125 C1.87890625,18.421875 2.3046875,18.5976562 2.8046875,18.5976562 Z M24.4023438,17.4023438 C24.5664062,17.4023438 24.7070312,17.34375 24.8242188,17.2265625 C24.9414062,17.109375 25,16.96875 25,16.8046875 C25,16.6328125 24.9414062,16.4882812 24.8242188,16.3710938 C24.7070312,16.2539062 24.5664062,16.1953125 24.4023438,16.1953125 L24.4023438,16.1953125 L6.40234375,16.1953125 C6.23828125,16.1953125 6.09765625,16.2539062 5.98046875,16.3710938 C5.86328125,16.4882812 5.8046875,16.6328125 5.8046875,16.8046875 C5.8046875,16.96875 5.86328125,17.109375 5.98046875,17.2265625 C6.09765625,17.34375 6.23828125,17.4023438 6.40234375,17.4023438 L6.40234375,17.4023438 L24.4023438,17.4023438 Z M2.8046875,17.4023438 C2.6328125,17.4023438 2.48828125,17.34375 2.37109375,17.2265625 C2.25390625,17.109375 2.1953125,16.96875 2.1953125,16.8046875 C2.1953125,16.6328125 2.25390625,16.4882812 2.37109375,16.3710938 C2.48828125,16.2539062 2.6328125,16.1953125 2.8046875,16.1953125 C2.96875,16.1953125 3.109375,16.2539062 3.2265625,16.3710938 C3.34375,16.4882812 3.40234375,16.6328125 3.40234375,16.8046875 C3.40234375,16.96875 3.34375,17.109375 3.2265625,17.2265625 C3.109375,17.34375 2.96875,17.4023438 2.8046875,17.4023438 Z M2.8046875,6.59765625 C3.296875,6.59765625 3.71875,6.421875 4.0703125,6.0703125 C4.421875,5.71875 4.59765625,5.296875 4.59765625,4.8046875 C4.59765625,4.3046875 4.421875,3.87890625 4.0703125,3.52734375 C3.71875,3.17578125 3.296875,3 2.8046875,3 C2.3046875,3 1.87890625,3.17578125 1.52734375,3.52734375 C1.17578125,3.87890625 1,4.3046875 1,4.8046875 C1,5.296875 1.17578125,5.71875 1.52734375,6.0703125 C1.87890625,6.421875 2.3046875,6.59765625 2.8046875,6.59765625 Z M24.4023438,5.40234375 C24.5664062,5.40234375 24.7070312,5.34375 24.8242188,5.2265625 C24.9414062,5.109375 25,4.96875 25,4.8046875 C25,4.6328125 24.9414062,4.48828125 24.8242188,4.37109375 C24.7070312,4.25390625 24.5664062,4.1953125 24.4023438,4.1953125 L24.4023438,4.1953125 L6.40234375,4.1953125 C6.23828125,4.1953125 6.09765625,4.25390625 5.98046875,4.37109375 C5.86328125,4.48828125 5.8046875,4.6328125 5.8046875,4.8046875 C5.8046875,4.96875 5.86328125,5.109375 5.98046875,5.2265625 C6.09765625,5.34375 6.23828125,5.40234375 6.40234375,5.40234375 L6.40234375,5.40234375 L24.4023438,5.40234375 Z M2.8046875,5.40234375 C2.6328125,5.40234375 2.48828125,5.34375 2.37109375,5.2265625 C2.25390625,5.109375 2.1953125,4.96875 2.1953125,4.8046875 C2.1953125,4.6328125 2.25390625,4.48828125 2.37109375,4.37109375 C2.48828125,4.25390625 2.6328125,4.1953125 2.8046875,4.1953125 C2.96875,4.1953125 3.109375,4.25390625 3.2265625,4.37109375 C3.34375,4.48828125 3.40234375,4.6328125 3.40234375,4.8046875 C3.40234375,4.96875 3.34375,5.109375 3.2265625,5.2265625 C3.109375,5.34375 2.96875,5.40234375 2.8046875,5.40234375 Z M2.8046875,12.5976562 C3.296875,12.5976562 3.71875,12.421875 4.0703125,12.0703125 C4.421875,11.71875 4.59765625,11.296875 4.59765625,10.8046875 C4.59765625,10.3046875 4.421875,9.87890625 4.0703125,9.52734375 C3.71875,9.17578125 3.296875,9 2.8046875,9 C2.3046875,9 1.87890625,9.17578125 1.52734375,9.52734375 C1.17578125,9.87890625 1,10.3046875 1,10.8046875 C1,11.296875 1.17578125,11.71875 1.52734375,12.0703125 C1.87890625,12.421875 2.3046875,12.5976562 2.8046875,12.5976562 Z M24.4023438,11.4023438 C24.5664062,11.4023438 24.7070312,11.34375 24.8242188,11.2265625 C24.9414062,11.109375 25,10.96875 25,10.8046875 C25,10.6328125 24.9414062,10.4882812 24.8242188,10.3710938 C24.7070312,10.2539062 24.5664062,10.1953125 24.4023438,10.1953125 L24.4023438,10.1953125 L6.40234375,10.1953125 C6.23828125,10.1953125 6.09765625,10.2539062 5.98046875,10.3710938 C5.86328125,10.4882812 5.8046875,10.6328125 5.8046875,10.8046875 C5.8046875,10.96875 5.86328125,11.109375 5.98046875,11.2265625 C6.09765625,11.34375 6.23828125,11.4023438 6.40234375,11.4023438 L6.40234375,11.4023438 L24.4023438,11.4023438 Z M2.8046875,11.4023438 C2.6328125,11.4023438 2.48828125,11.34375 2.37109375,11.2265625 C2.25390625,11.109375 2.1953125,10.96875 2.1953125,10.8046875 C2.1953125,10.6328125 2.25390625,10.4882812 2.37109375,10.3710938 C2.48828125,10.2539062 2.6328125,10.1953125 2.8046875,10.1953125 C2.96875,10.1953125 3.109375,10.2539062 3.2265625,10.3710938 C3.34375,10.4882812 3.40234375,10.6328125 3.40234375,10.8046875 C3.40234375,10.96875 3.34375,11.109375 3.2265625,11.2265625 C3.109375,11.34375 2.96875,11.4023438 2.8046875,11.4023438 Z M2.8046875,18.5976562 C3.296875,18.5976562 3.71875,18.421875 4.0703125,18.0703125 C4.421875,17.71875 4.59765625,17.296875 4.59765625,16.8046875 C4.59765625,16.3046875 4.421875,15.8789062 4.0703125,15.5273438 C3.71875,15.1757812 3.296875,15 2.8046875,15 C2.3046875,15 1.87890625,15.1757812 1.52734375,15.5273438 C1.17578125,15.8789062 1,16.3046875 1,16.8046875 C1,17.296875 1.17578125,17.71875 1.52734375,18.0703125 C1.87890625,18.421875 2.3046875,18.5976562 2.8046875,18.5976562 Z M24.4023438,17.4023438 C24.5664062,17.4023438 24.7070312,17.34375 24.8242188,17.2265625 C24.9414062,17.109375 25,16.96875 25,16.8046875 C25,16.6328125 24.9414062,16.4882812 24.8242188,16.3710938 C24.7070312,16.2539062 24.5664062,16.1953125 24.4023438,16.1953125 L24.4023438,16.1953125 L6.40234375,16.1953125 C6.23828125,16.1953125 6.09765625,16.2539062 5.98046875,16.3710938 C5.86328125,16.4882812 5.8046875,16.6328125 5.8046875,16.8046875 C5.8046875,16.96875 5.86328125,17.109375 5.98046875,17.2265625 C6.09765625,17.34375 6.23828125,17.4023438 6.40234375,17.4023438 L6.40234375,17.4023438 L24.4023438,17.4023438 Z M2.8046875,17.4023438 C2.6328125,17.4023438 2.48828125,17.34375 2.37109375,17.2265625 C2.25390625,17.109375 2.1953125,16.96875 2.1953125,16.8046875 C2.1953125,16.6328125 2.25390625,16.4882812 2.37109375,16.3710938 C2.48828125,16.2539062 2.6328125,16.1953125 2.8046875,16.1953125 C2.96875,16.1953125 3.109375,16.2539062 3.2265625,16.3710938 C3.34375,16.4882812 3.40234375,16.6328125 3.40234375,16.8046875 C3.40234375,16.96875 3.34375,17.109375 3.2265625,17.2265625 C3.109375,17.34375 2.96875,17.4023438 2.8046875,17.4023438 Z" id="llist" fill="#000000" fill-rule="nonzero"></path>
    </g>
</svg>