<?xml version="1.0" encoding="UTF-8"?>
<svg width="15px" height="17px" viewBox="0 0 15 17" version="1.1" xmlns="http://www.w3.org/2000/svg" xmlns:xlink="http://www.w3.org/1999/xlink">
    <title>ccopy</title>
    <g id="Page-1" stroke="none" stroke-width="1" fill="none" fill-rule="evenodd" opacity="0.799999952">
        <g id="desktop-share" transform="translate(-373.000000, -280.000000)" fill="#2F3336" fill-rule="nonzero">
            <g id="Group-5-Copy" transform="translate(353.000000, 184.500000)">
                <g id="Group-Copy" transform="translate(20.000000, 96.000000)">
                    <path d="M13.203125,16.296875 C13.53125,16.296875 13.8125,16.1796875 14.046875,15.9453125 C14.28125,15.7109375 14.3984375,15.4296875 14.3984375,15.1015625 L14.3984375,4.703125 C14.3984375,4.36979167 14.28125,4.0859375 14.046875,3.8515625 C13.8125,3.6171875 13.53125,3.5 13.203125,3.5 L11.203125,3.5 L11.203125,1.5 C11.203125,1.16666667 11.0859375,0.8828125 10.8515625,0.6484375 C10.6171875,0.4140625 10.3333333,0.296875 10,0.296875 L4,0.296875 C3.94791667,0.296875 3.89713542,0.307291667 3.84765625,0.328125 C3.79817708,0.348958333 3.75520833,0.377604167 3.71875,0.4140625 L0.9140625,3.21875 C0.877604167,3.25520833 0.848958333,3.29817708 0.828125,3.34765625 C0.807291667,3.39713542 0.796875,3.44791667 0.796875,3.5 L0.796875,11.8984375 C0.796875,12.2317708 0.9140625,12.515625 1.1484375,12.75 C1.3828125,12.984375 1.66666667,13.1015625 2,13.1015625 L4,13.1015625 L4,15.1015625 C4,15.4296875 4.1171875,15.7109375 4.3515625,15.9453125 C4.5859375,16.1796875 4.86979167,16.296875 5.203125,16.296875 L13.203125,16.296875 Z M4,12.296875 L2,12.296875 C1.890625,12.296875 1.796875,12.2578125 1.71875,12.1796875 C1.640625,12.1015625 1.6015625,12.0078125 1.6015625,11.8984375 L1.6015625,4.296875 L3.6015625,4.296875 C3.9296875,4.296875 4.2109375,4.1796875 4.4453125,3.9453125 C4.6796875,3.7109375 4.796875,3.4296875 4.796875,3.1015625 L4.796875,1.1015625 L10,1.1015625 C10.109375,1.1015625 10.203125,1.140625 10.28125,1.21875 C10.359375,1.296875 10.3984375,1.390625 10.3984375,1.5 L10.3984375,3.5 L7.203125,3.5 C7.14583333,3.5 7.09375,3.51041667 7.046875,3.53125 C7,3.55208333 6.95572917,3.58072917 6.9140625,3.6171875 L4.1171875,6.4140625 C4.08072917,6.45572917 4.05208333,6.5 4.03125,6.546875 C4.01041667,6.59375 4,6.64583333 4,6.703125 L4,12.296875 Z M3.6015625,3.5 L1.765625,3.5 L4,1.265625 L4,3.1015625 C4,3.2109375 3.9609375,3.3046875 3.8828125,3.3828125 C3.8046875,3.4609375 3.7109375,3.5 3.6015625,3.5 Z M13.203125,15.5 L5.203125,15.5 C5.08854167,15.5 4.9921875,15.4609375 4.9140625,15.3828125 C4.8359375,15.3046875 4.796875,15.2109375 4.796875,15.1015625 L4.796875,7.5 L6.796875,7.5 C7.13020833,7.5 7.4140625,7.3828125 7.6484375,7.1484375 C7.8828125,6.9140625 8,6.63020833 8,6.296875 L8,4.296875 L13.203125,4.296875 C13.3125,4.296875 13.40625,4.3359375 13.484375,4.4140625 C13.5625,4.4921875 13.6015625,4.58854167 13.6015625,4.703125 L13.6015625,15.1015625 C13.6015625,15.2109375 13.5625,15.3046875 13.484375,15.3828125 C13.40625,15.4609375 13.3125,15.5 13.203125,15.5 Z M6.796875,6.703125 L4.96875,6.703125 L7.203125,4.46875 L7.203125,6.296875 C7.203125,6.41145833 7.1640625,6.5078125 7.0859375,6.5859375 C7.0078125,6.6640625 6.91145833,6.703125 6.796875,6.703125 Z" id="ccopy"></path>
                </g>
            </g>
        </g>
    </g>
</svg>