<svg fill="none" height="80" viewBox="0 0 80 80" width="80" xmlns="http://www.w3.org/2000/svg"><g clip-rule="evenodd" fill-rule="evenodd"><path d="m64.7054 7.00012c2.33 0 4.2744 1.79422 4.4957 4.08978l.0156.2166.0052.2159v38.0275c0 2.3331-1.792 4.2804-4.084 4.5015l-.2163.0156-.2156.0052-7.3931-.0313-1.209-1.2381.0719-.1707 8.5296.0003c1.5719 0 2.8817-1.1896 3.0583-2.7263l.0152-.1788.0051-.1774-.0004-31.4126h-56.4924l.0009 31.4126c0 1.5128 1.0991 2.7845 2.5479 3.0369l.1755.0254.1785.0152.1773.005 8.0963-.0003.0719.1708-1.2838 1.2683-6.8844.001c-2.3307 0-4.2744-1.7943-4.49509-4.0899l-.0156-.2166-.00514-.2158v-38.0275c0-2.33393 1.79113-4.28053 4.08393-4.50151l.2163-.01562.2156-.00515zm.0007 1.43891h-50.3347c-1.5723 0-2.8828 1.19-3.059 2.72687l-.0153.1788-.005.1775-.0009 5.1758h56.4928v-5.1758c0-1.63896-1.284-2.98394-2.8974-3.07792zm-43.7532 3.42507c.5433 0 .9836.441.9836.9849 0 .5438-.4403.9848-.9836.9848-.5432 0-.9836-.441-.9836-.9848 0-.5439.4404-.9849.9836-.9849zm-4.415 0c.5432 0 .9836.441.9836.9849 0 .5438-.4404.9848-.9836.9848-.5433 0-.9836-.441-.9836-.9848 0-.5439.4403-.9849.9836-.9849z" fill="#1b127d"/><path d="m21.312 22.1885c-.0996-.0734-.2211-.114-.3469-.114-.1571 0-.3077.0635-.4184.1763l-7.5089 7.6349-.0674.0836c-.1571.2347-.1348.5548.0666.7642l16.0882 15.8139.0095.0115 1.6916 1.6607-11.5439 11.5647-.0571-.0043c-.0839.0071-.1942.0644-.282.1521l-.0603.0702-.0484.0774c-.0423.0805-.0661.1699-.0694.2617l-.7963.7597-.008-.0085-.0873-.0582c-.2406-.1336-.5374-.0946-.7309.1014l-.0651.0779-.0502.0855c-.0996.2068-.0766.4595.0745.6472l.0098.0099-.8794.8825-.1696.1777c-1.4873 1.6262-1.9078 3.9762-1.0588 6.027.8804 2.1271 2.9529 3.5141 5.2515 3.5141 1.5079.006 2.9559-.5929 4.0204-1.6631l2.5648-2.5675.0746-.0016c.1524-.0227.3173-.1578.3944-.3466l.023-.0669.0149-.0688.007-.0699 11.6753-11.6587 4.9418 4.957-.021.0572c-.0264.1245.04.3038.1723.4362.1198.1224.285.1915.4572.1909.0421.0001.0846-.0041.1262-.0123l8.2532 8.3396-.0229.0297c-.021.0524-.0054.1515.0325.2441.1007.246.3418.4049.6073.4003.0358-.0005.0716-.0041.1069-.0107l2.0097 2.0767.0721.0617c.1017.074.2249.1146.3522.1146.1624.005.3224-.0589.439-.1765l7.6178-7.6518.0693-.0833.052-.0916c.1011-.2218.0607-.4925-.1214-.6752l-16.6594-16.7044 13.2235-13.2435.0581-.0675.047-.0749c.0137-.0261.0255-.0531.0351-.0809l.0042-.0187.0226-.0033c.2055-.0568.37-.2127.4286-.4168l1.8442-6.4222.0262-.0266c.0191-.0255.0403-.0649.0573-.1063.0447-.1092.0579-.2277.0389-.3416.0259-.1151-.0075-.2682-.0933-.3943l-.0396-.0489.7188-2.4703.0177-.0891c.0215-.1792-.0403-.3609-.1713-.4908-.1527-.1514-.3755-.2088-.5826-.15l-2.533.7137-.0328-.0468-.049-.0378c-.0562-.0331-.1325-.0514-.2175-.0514l-.0854.0063-.0648-.0062c-.0576-.0019-.1155.0041-.1722.018-.1003.0247-.192.0732-.2679.1413l-4.4686 1.2994-1.6194.4501-.2788.0612-.0834.0306c-.161.074-.2848.2223-.333.4031l-.0049.0225-.0159.0045-.0814.0337c-.0526.0265-.1016.0608-.1453.1023l-13.465 13.4876-.0148-.0229-.0281-.0345-17.8065-17.4962zm34.7178 4.0973 3.8009-1.1157.0434.0231c.089.0379.1865.054.2845.0456l1.7091 1.7503-.0158.0269c-.0123.0466.0097.1324.0497.2106l.0244.0391-1.6883 5.7672-3.0512-3.057-.0283-.0345c-.0217-.0238-.0485-.0483-.0774-.0703l-3.0266-3.0308.3863-.1033zm-41.7391 4.0224 6.6739-6.7865 17.4167 17.0974.0213.015-6.7352 6.7442-1.221-1.2009 1.5151-1.5158.064-.0754c.1152-.1589.1538-.3629.1011-.5553-.0615-.2245-.2379-.3991-.4629-.4581l-.097-.0177c-.1947-.0204-.3905.0482-.5305.1902l-1.5144 1.5236-3.3204-3.261 3.3416-3.3553.0677-.0698c.1232-.1497.172-.355.1239-.5513-.0561-.2291-.2348-.4078-.4635-.4632l-.0984-.0157c-.1973-.0157-.3928.0628-.525.2156l-3.3517 3.3493-3.3224-3.2631 1.5985-1.6033.0679-.0799c.1808-.252.1582-.6053-.0679-.832l-.0798-.068c-.2515-.1815-.6044-.1588-.8306.068l-1.6106 1.6107-3.3264-3.2681 3.4949-3.4988c.124-.149.1738-.3541.1264-.5506-.0554-.2293-.2339-.4086-.4629-.4649l-.0986-.0162c-.1975-.0164-.3938.0613-.5269.2134l-3.4324 3.4338zm38.8244-2.7306-32.8097 32.861 2.7606 2.7636 32.8127-32.8569zm-29.1999 36.475 32.8047-32.864 2.7606 2.7656-32.8067 32.859zm15.9646-8.7883 6.7884-6.7995 16.225 16.2973-6.7754 6.7935-1.5416-1.5456 1.3547-1.3572.0677-.0797c.1804-.2511.1579-.6032-.0677-.829l-.0796-.0678c-.2508-.1808-.6026-.1582-.8282.0678l-1.3554 1.3534-3.6369-3.648 2.9465-2.9463.0594-.0803c.1373-.2234.1078-.5123-.0797-.7007l-.0747-.0632c-.2102-.1489-.5004-.1392-.7011.0351l-2.9504 2.9525-3.6309-3.642 1.3663-1.3671.0674-.0921c.1558-.256.1208-.5866-.0947-.8013l-.0858-.0721c-.2412-.1694-.5732-.157-.8021.0436l-1.3686 1.3675-3.6218-3.6349 2.9285-2.9468.0593-.0802c.1371-.2232.1077-.5121-.0799-.7005l-.0747-.0632c-.2102-.1489-.5004-.1392-.701.0351l-2.9422 2.9436zm-22.8048 8.4121.8759-.879 6.3673 6.3755-.8809.8825-.1741.1586c-1.7724 1.5325-4.4468 1.4496-6.1221-.2291-1.7313-1.7349-1.7607-4.5377-.0661-6.3085zm2.3736-2.3784-.6401.6411 6.3684 6.3745.6311-.6331-2.8818-2.927-.0605-.0046c-.2054-.0326-.3801-.1702-.4595-.3641-.0196-.048-.0328-.0979-.0272-.1207l.0124-.0126zm42.0781-36.4324.9366-.2623-.2593.9406z" fill="#ed26b7"/></g></svg>