<svg fill="none" height="80" viewBox="0 0 80 80" width="80" xmlns="http://www.w3.org/2000/svg"><g clip-rule="evenodd" fill-rule="evenodd"><path d="m44.4496 9.05969c12.7578 0 23.1 10.34221 23.1 23.10001 0 12.6302-10.1364 22.8929-22.718 23.0969l-.382.0031v-1.5c11.9294 0 21.6-9.6707 21.6-21.6 0-11.9294-9.6706-21.6-21.6-21.6-11.81 0-21.4064 9.4782-21.5971 21.2428l-.0029.3572h-1.5c0-12.7578 10.3422-23.10001 23.1-23.10001zm-4.3316 23.10001c0-2.3923 1.9393-4.3316 4.3316-4.3316 1.6581 0 3.0986.9316 3.8266 2.3l13.3561-3.8073c.3983-.1136.8133.1173.9268.5156.1041.3652-.0812.7443-.4196.8924l-.096.0345-13.304 3.7925c.0275.1973.0417.399.0417.6039 0 2.3923-1.9393 4.3316-4.3316 4.3316s-4.3316-1.9393-4.3316-4.3316zm7.1632 0c0-1.5639-1.2677-2.8316-2.8316-2.8316-1.5638 0-2.8316 1.2677-2.8316 2.8316 0 1.5638 1.2678 2.8316 2.8316 2.8316 1.5639 0 2.8316-1.2678 2.8316-2.8316zm-.2204-11.7798c-.4045-.0893-.8048.1662-.8941.5707-.0892.4044.1663.8047.5707.894 2.4277.5358 4.5811 1.9183 6.0908 3.8812.2525.3283.7234.3897 1.0518.1372.3283-.2525.3897-.7234.1372-1.0517-1.7231-2.2404-4.1822-3.8191-6.9564-4.4314zm-2.6112-5.7913c6.4263 0 12.2437 3.4799 15.3323 8.9822.2028.3612.0743.8183-.2869 1.0211-.3612.2027-.8183.0743-1.0211-.2869-2.8257-5.034-8.1459-8.2164-14.0243-8.2164-.4142 0-.75-.3358-.75-.75s.3358-.75.75-.75z" fill="#1b127d"/><path d="m16.9062 39.005c-.0726.0091-.1439.0289-.2109.0586-2.4398 1.105-4.1953 3.4343-4.1953 6.3164 0 2.6936 1.5372 4.9908 3.75 6.1992v7.8399c-2.2127 1.2084-3.75 3.5174-3.75 6.2109 0 2.8821 1.7555 5.1998 4.1953 6.3047.4527.2012 1.0509-.1843 1.0547-.6797v-4.875h3.75v4.875c.0038.4954.602.8809 1.0547.6797 2.4398-1.1049 4.1953-3.4226 4.1953-6.3047 0-2.6935-1.5373-5.0025-3.75-6.2109v-7.8399c2.2128-1.2084 3.75-3.5056 3.75-6.1992 0-2.8821-1.7555-5.2114-4.1953-6.3164-.4563-.2028-1.0587.1921-1.0547.6914v4.875h-3.75v-4.875c.0033-.4259-.4211-.8032-.8438-.75zm15.3985 0c-.3027.0275-.5767.2574-.6563.5508l-1.125 4.125c-.0448.1751-.0236.3664.0586.5274l1.043 2.0859v7.7109h-1.125c-.0234-.0011-.0469-.0011-.0703 0-.3687.0348-.6813.3797-.6797.75v16.5c0 .3927.3573.75.75.75h6.75c.3927 0 .75-.3573.75-.75v-16.5c0-.3927-.3573-.7499-.75-.75h-1.125v-7.7109l1.043-2.0859c.0822-.161.1034-.3523.0586-.5274l-1.125-4.125c-.0868-.3149-.4-.5523-.7266-.5508h-3c-.0234-.0011-.0469-.0011-.0703 0zm2.4961 1.5h-1.8516l-.9023 3.293.9961 1.9922c.0535.1047.0818.2222.082.3398v7.875h1.5v-7.875c.0002-.1176.0285-.2351.082-.3398l.9961-1.9922zm-18.5508.586v4.289c0 .3927.3573.75.75.75h5.25c.3927 0 .75-.3573.75-.75v-4.289c1.3659.9824 2.25 2.451 2.25 4.289 0 2.2863-1.3541 4.226-3.3047 5.1094-.2651.1179-.4476.4013-.4453.6914v8.6484c.0022.2863.1838.5634.4453.6797 1.9506.8834 3.3047 2.8348 3.3047 5.1211 0 1.8385-.8835 3.3067-2.25 4.2891v-4.2891c0-.3927-.3573-.7499-.75-.75h-5.25c-.3927.0001-.75.3573-.75.75v4.2891c-1.3665-.9824-2.25-2.4506-2.25-4.2891 0-2.2863 1.3541-4.2377 3.3047-5.1211.2615-.1163.4431-.3934.4453-.6797v-8.6484c.0023-.2901-.1802-.5735-.4453-.6914-1.9506-.8834-3.3047-2.8231-3.3047-5.1094 0-1.838.8841-3.3066 2.25-4.289zm20.25 14.414h-5.25v15h5.25z" fill="#ed26b7"/></g></svg>