<svg fill="none" height="80" viewBox="0 0 80 80" width="80" xmlns="http://www.w3.org/2000/svg"><path clip-rule="evenodd" d="m42.4607 6.84778c2.9363 0 5.3585 2.20096 5.707 5.04312 2.6105.32 4.68 2.3896 5 5 2.8423.3486 5.043 2.7707 5.043 5.7069v11.788c0 3.1757-2.5744 5.75-5.75 5.75h-6.9927l2.5914 4.2899c.2903-.2949.6386-.6488.9869-.8258 1.3352-.8258 2.9607-.8848 4.2379-.1769.3483-.7079.8707-1.2388 1.5674-1.7106 1.3352-.8259 2.9606-.8848 4.2378-.177.3483-.7078.8708-1.2387 1.5674-1.7106 1.0449-.6489 2.3221-.8258 3.4831-.5309 1.103.2949 2.0319 1.0028 2.6124 2.0056l6.4438 11.9152c3.1348 5.8397 1.103 12.1512-2.3221 15.8674-2.4382 2.5954-5.6311 4.07-8.882 4.07-1.6835 0-3.4251-.3539-5.1086-1.1797l-17.5899-8.4351c-1.0449-.5308-1.8576-1.4156-2.264-2.5364-.3114-1.002-.6419-2.2488.6386-3.8931 2.0152-1.6078 5.3988-1.6516 7.4887-.7078l-8.1273-13.272c-.5689-.8934-.7692-1.9741-.6419-2.9918l-15.3886-.0004c-2.9365 0-5.3588-2.2012-5.707-5.0436-2.6105-.3195-4.68-2.3891-5-4.9995-2.77064-.3397-4.93186-2.6501-5.03882-5.4863l-.00416-.2206v-11.788c0-3.10181 2.45602-5.62996 5.52948-5.74587l.2205-.00415zm-2.4607 31.15222c-1.1829.3943-2.1164 1.6794-2.2361 2.2792-.1196.5998-.0598 1.1995.2393 1.7393l10.3476 16.7336c.2392.4799.424 1.2465.125 1.6664-.2991.3598-1.9973-1.9009-2.4758-2.2008-2.5-1.8177-6.3167-1.1099-7.203 0-.8863 1.1098-.4296 2.0208-.2501 2.5006.1794.5998.6579 1.0197 1.1364 1.2596l18.1232 8.5767c4.9047 2.3391 9.3906.1799 11.9626-2.519 2.9308-3.1788 4.785-8.5768 2.0336-13.4949l-6.699-12.1754c-.2393-.4798-.5811-1.311-1.1194-1.4309-.8751-.2394-2.29-.1612-2.8186.778-.4493.798-.2704 1.6332-1.1498 1.9639-.4785.1199-.8972 0-1.1962-.2999-.7178-.8397-1.7138-.7027-2.6708-.1629-.658.3598-1.1153.7871-1.1751 1.5668-.0598.4798-.299.8397-.7775 1.0196-.4785.1199-.8972 0-1.1963-.2999-.7178-.8397-1.6262-1.0453-2.5832-.5055-.5383.2999-.8972.8397-1.0168 1.4994-.0775.3109.0868.7858-.3105.8997-.4785.06-1.0652.0572-1.3045-.3626l-4.785-7.7371c-.6579-1.0796-1.5-1.7939-3-1.2939zm12.4607-19.6522h-31.4617c-2.3472 0-4.25 1.9028-4.25 4.25v11.788c0 2.3472 1.9028 4.25 4.25 4.25l15.8694-.0001c.3656-.6718.9106-1.2575 1.5544-1.6423 2.0318-1.2387 4.8183-.6488 6.0374 1.4747l.1008.1677h7.8997c2.2782 0 4.1377-1.7925 4.2451-4.0441l.0049-.2059v-11.788c0-2.3472-1.9028-4.25-4.25-4.25zm-14.1519 4.5709c.3743.1315.5816.5252.4882.9026l-.0211.0705-3.4101 9.7058c-.1397.3977-.5754.6069-.9731.4671-.3743-.1315-.5816-.5251-.4881-.9026l.021-.0705 3.4102-9.7058c.1397-.3977.5754-.6068.973-.4671zm9.1519-9.5709h-31.4617c-2.2782 0-4.1377 1.7925-4.2451 4.0441l-.0049.2059v11.788c0 2.0913 1.5105 3.8298 3.5 4.1841v-10.9721c0-3.1757 2.5744-5.75 5.75-5.75h30.6457c-.3425-1.9239-1.9795-3.3998-3.9781-3.4951zm-5-5.00002h-31.4617c-2.27815 0-4.13766 1.79252-4.24508 4.04412l-.0049.2059v11.788c0 2.0913 1.51049 3.8298 3.49998 4.1841v-10.9721c0-3.1018 2.456-5.63 5.5295-5.7459l.2205-.0041 30.6455-.001c-.3429-1.92337-1.9796-3.39879-3.9779-3.49412z" fill="#1b127d" fill-rule="evenodd"/><g fill="#ed26b7"><path d="m30.5022 24.0763c.2446-.2998.2271-.742-.0523-1.0215-.2981-.298-.7814-.298-1.0794 0l-4.897 4.897-.0523.0579c-.2446.2998-.2271.742.0523 1.0215l4.897 4.8969.0579.0524c.2998.2445.742.227 1.0215-.0524l.0523-.058c.2446-.2998.2271-.742-.0523-1.0214l-4.3574-4.3572 4.3574-4.3573z"/><path d="m44.0904 23.0548-.0579-.0523c-.2998-.2446-.742-.2271-1.0215.0523l-.0523.058c-.2446.2998-.2271.742.0523 1.0214l4.3574 4.3573-4.3574 4.3572-.0523.058c-.2446.2997-.2271.742.0523 1.0214.2981.298.7814.298 1.0794 0l4.897-4.8969.0523-.058c.2446-.2998.2271-.742-.0523-1.0214z"/></g></svg>