<svg fill="none" height="80" viewBox="0 0 80 80" width="80" xmlns="http://www.w3.org/2000/svg"><g clip-rule="evenodd" fill-rule="evenodd"><path d="m26.8911 23.0816.7801 1.3968c-7.3108 4.0832-12.1295 11.5739-12.7242 20.0258l-.027.438-1.5977-.0844c.4775-9.0332 5.4874-17.0885 13.1818-21.5559zm27.059 43.7977.9021 1.3214c-4.4213 3.0184-9.598 4.6593-15.011 4.6593-5.2658 0-10.2793-1.5168-14.5364-4.3261l-.4377-.2952.9081-1.3174c4.0832 2.8147 8.9441 4.3387 14.066 4.3387 4.9114 0 9.6144-1.437 13.6762-4.0916zm12.3845-22.3513c-.589-9.0545-5.7356-17.0857-13.5434-21.4464l-.7801 1.3968.377.215c7.2466 4.2137 11.964 11.8293 12.374 20.365l1.5981-.0768z" fill="#ed26b7"/><path d="m39.8406 7.14c-7.5773 0-13.72 6.1427-13.72 13.72s6.1427 13.72 13.72 13.72c7.5774 0 13.72-6.1427 13.72-13.72s-6.1426-13.72-13.72-13.72zm0 1.6c6.6937 0 12.12 5.4263 12.12 12.12s-5.4263 12.12-12.12 12.12-12.12-5.4263-12.12-12.12 5.4263-12.12 12.12-12.12zm-22.48 34.92c-7.57732 0-13.71998 6.1427-13.71998 13.72 0 7.5774 6.14266 13.72 13.71998 13.72 7.5774 0 13.72-6.1426 13.72-13.72 0-7.5773-6.1426-13.72-13.72-13.72zm0 1.6c6.6937 0 12.12 5.4263 12.12 12.12s-5.4263 12.12-12.12 12.12-12.11997-5.4263-12.11997-12.12 5.42627-12.12 12.11997-12.12zm31.5598 12.32c0-7.5773 6.1427-13.72 13.72-13.72 7.5774 0 13.72 6.1427 13.72 13.72s-6.1426 13.72-13.72 13.72c-7.5773 0-13.72-6.1427-13.72-13.72zm25.84 0c0-6.6937-5.4263-12.12-12.12-12.12s-12.12 5.4263-12.12 12.12 5.4263 12.12 12.12 12.12 12.12-5.4263 12.12-12.12z" fill="#1b127d"/></g></svg>