<?xml version="1.0" encoding="UTF-8"?>
<svg width="64px" height="64px" viewBox="0 0 64 64" version="1.1" xmlns="http://www.w3.org/2000/svg" xmlns:xlink="http://www.w3.org/1999/xlink">
    <title>icon-slack</title>
    <defs>
        <linearGradient x1="0%" y1="0%" x2="100%" y2="100%" id="linearGradient-1">
            <stop stop-color="#1C0D3F" offset="0%"></stop>
            <stop stop-color="#1C0D3F" offset="100%"></stop>
        </linearGradient>
    </defs>
    <g id="Page-1" stroke="none" stroke-width="1" fill="none" fill-rule="evenodd">
        <g id="icon-slack" transform="translate(0.000000, 0.000000)" fill="url(#linearGradient-1)" fill-rule="nonzero">
            <path d="M39.9153617,49.5750473 C43.7364068,49.5778659 46.8324964,52.6729666 46.8296769,56.4870052 C46.8324964,60.3020799 43.7364068,63.3971802 39.9138127,63.3999982 C36.2667807,63.3946182 33.2657128,60.5693444 33.0163927,56.9632823 L33.0040557,56.7270183 L33.0000176,56.4875232 L33.0000176,49.5750473 L39.9153617,49.5750473 Z M23.4882035,33.0025338 C27.1364148,33.0079158 30.1371709,35.8343857 30.3839747,39.4425217 L30.3961445,39.6789222 L30.4000127,39.9180857 L30.4000127,56.4864634 C30.4028267,60.301838 27.3064929,63.3971802 23.4835993,63.3999982 C19.835388,63.3946162 16.8346319,60.5681465 16.5878281,56.9600105 L16.5756583,56.72361 L16.5717902,56.4844466 L16.5717902,39.913535 C16.5690338,36.1763223 19.5366141,33.1317747 23.2492065,33.0065406 L23.4882035,33.0025338 Z M39.9143291,50.9749992 L34.3999129,50.9749992 L34.3999129,56.4754164 L34.403513,56.6901521 C34.5080191,59.6429084 36.9425957,61.9956132 39.9143291,61.9999992 C42.962737,61.9977512 45.4319241,59.5293524 45.4296765,56.4870052 C45.4318706,53.5181062 43.0789163,51.0951632 40.1310619,50.9793763 L39.9143291,50.9749992 Z M23.4861382,34.4025323 L23.2703527,34.4067034 C20.3951121,34.5175031 18.0875625,36.8225186 17.9760155,39.6912611 L17.9716979,39.913018 L17.9716979,56.4728564 L17.9751424,56.6877761 C18.0775274,59.6422085 20.5115158,61.9956122 23.4841156,61.9999992 C26.4602354,61.9978042 28.8843352,59.6452656 28.9959915,56.7032745 L29.0001049,56.4869804 L29.0001049,39.9296759 L28.9966604,39.7147561 C28.896835,36.8341845 26.5805292,34.5249657 23.7081586,34.4072385 L23.4861382,34.4025323 Z M56.4887474,32.9999992 C60.3104343,33.0056378 63.4056499,36.1016085 63.4000246,39.9144918 C63.4026979,43.5561444 60.5766669,46.5562691 56.9630335,46.8104379 L56.7262661,46.8230993 L56.485176,46.8274848 L39.9143291,46.8274848 C36.0932443,46.8246661 32.9997333,43.7295255 33.0025527,39.9129932 C32.9998614,36.2713409 35.8258923,33.271215 39.4395266,33.0170461 L39.6762941,33.0043847 L39.9173841,32.9999992 L56.4887474,32.9999992 Z M13.8307651,32.9999992 L13.8307651,39.9124999 C13.8335848,43.7278742 10.7372516,46.8232179 6.91487324,46.8260366 C3.09352744,46.8232179 -0.00280586356,43.7278742 1.40092667e-05,39.913536 C-0.00267746356,36.2715978 2.82357574,33.2712363 6.43749354,33.0170475 L6.67427954,33.004385 L6.91538954,32.9999992 L13.8307651,32.9999992 Z M56.4866821,34.3999984 L39.9304702,34.3998769 L39.7150632,34.403791 C36.7533826,34.5125288 34.4003611,36.9459433 34.4025531,39.9129928 C34.4003586,42.8845855 36.7511083,45.3073781 39.6981681,45.423156 L39.9148454,45.4274848 L56.47209,45.4276071 L56.6874969,45.423693 C59.6491771,45.3149552 62.0021998,42.8815409 62.0000221,39.9139734 C62.0045069,36.8735884 59.5360173,34.4044969 56.4866821,34.3999984 Z M6.92847554,34.3998769 L6.71304864,34.4037914 C3.75107584,34.5125398 1.39782214,36.946194 1.4000144,39.913536 C1.39776644,42.9551467 3.86719724,45.4237882 6.91487324,45.426037 C9.89099354,45.4238417 12.3150923,43.0713029 12.4267442,40.129312 L12.4307614,39.913018 L12.4300159,34.3999992 L6.92847554,34.3998769 Z M23.4831641,16.5714278 C27.3046588,16.574247 30.4002981,19.6700396 30.3974792,23.4864624 C30.4001703,27.128387 27.5741532,30.1287599 23.9605071,30.3829508 L23.7237388,30.3956134 L23.4826477,30.3999992 L6.91128434,30.3999992 C3.08958384,30.3943601 -0.00561846356,27.2981326 7.65776996e-06,23.4849635 C-0.00266646356,19.8430387 2.82335134,16.842667 6.43699644,16.5884762 L6.67376464,16.5758136 L6.91485584,16.5714278 L23.4831641,16.5714278 Z M56.4851586,16.571428 C60.3065044,16.5742466 63.4028379,19.6695903 63.4000179,23.4839289 C63.4027089,27.1278852 60.5768522,30.1287254 56.9625637,30.3829492 L56.7257524,30.3956133 L56.4846423,30.3999992 L49.5692668,30.3999992 L49.5692668,23.4849646 C49.5665058,19.7490773 52.5351115,16.7035318 56.2462574,16.5756094 L56.4851586,16.571428 Z M39.9164325,4.61852778e-13 C43.5633979,0.0053801 46.5627152,2.8305301 46.8118698,6.4372091 L46.8241983,6.6735144 L46.8282365,6.913018 L46.8282365,23.4839289 C46.8310557,27.3014011 43.7351591,30.39718 39.9118283,30.3999984 C36.263617,30.3946165 33.2628609,27.5681465 33.0160571,23.9600105 L33.0038873,23.72361 L33.0000192,23.4844466 L33.0000192,6.913535 C32.9972638,3.1776474 35.9658701,0.1321032 39.677015,0.0041808 L39.9164325,4.61852778e-13 Z M23.4821313,17.9714276 L6.92794294,17.9713054 L6.71253714,17.9752199 C3.75086904,18.0839667 1.39783204,20.5176084 1.40000982,23.4854819 C1.39563194,26.4537825 3.74788234,28.8775905 6.69559374,28.9955116 L6.91231704,28.9999992 L23.4695605,29.0001215 L23.6849663,28.9962071 C26.6466349,28.8874603 28.9996707,26.4538183 28.9974788,23.4864628 C28.9996728,20.5151233 26.6470373,18.0915727 23.6988869,17.9757578 L23.4821313,17.9714276 Z M56.484126,17.9714276 L56.2684044,17.9757572 C53.3939628,18.0886608 51.085104,20.3950319 50.9734945,23.2627715 L50.9692704,23.4844466 L50.9690159,28.9999992 L56.4715562,29.0001215 L56.6869829,28.996207 C59.6492805,28.8874455 62.0022096,26.4534225 62.0000175,23.4839285 C62.0022118,20.5147372 59.6490254,18.0915555 56.7008802,17.9757572 L56.484126,17.9714276 Z M39.9150159,1.3989992 L39.6991621,1.4043286 C36.8247209,1.5172323 34.5158609,3.8236031 34.4042472,6.6913429 L34.3999269,6.913018 L34.3999269,23.4728564 L34.4033714,23.6877761 C34.5057564,26.6422085 36.9397448,28.9956124 39.9123446,28.9999994 C42.8888048,28.9978039 45.3125798,26.6449342 45.4242162,23.7008937 L45.4283373,23.4844466 L45.4283373,6.9251134 L45.42474,6.7103466 C45.3229119,3.8306117 43.0075921,1.5223795 40.1363042,1.4047026 L39.9150159,1.3989992 Z M23.4962319,0.000131 L23.7369809,0.004917 C27.2784379,0.1373778 30.1381766,2.9207143 30.3833351,6.4351504 L30.3959762,6.6758814 L30.4000142,6.9155518 L30.4000142,13.8260368 L23.48467,13.8260368 C19.6636114,13.8232179 16.5675354,10.7278605 16.570355,6.913536 C16.567594,3.1772749 19.533899,0.1320874 23.2443076,0.0041803 L23.4962319,0.000131 Z M23.4760159,1.3989992 L23.2664754,1.4043276 C20.4668053,1.5143038 18.2050662,3.7059658 17.9875029,6.4716898 L17.974372,6.6971659 L17.9703554,6.913536 C17.9681612,9.8827408 20.3211285,12.3059097 23.2684905,12.4217072 L23.4851864,12.4260368 L28.9990159,12.4260368 L29.0001187,6.9276489 L28.9965181,6.7127184 C28.8973244,3.9078454 26.694676,1.6345065 23.9231663,1.417366 L23.697233,1.4042961 L23.4760159,1.3989992 Z" id="Combined-Shape" transform="translate(31.700016, 31.699999) scale(-1, 1) rotate(-180.000000) translate(-31.700016, -31.699999) "></path>
        </g>
    </g>
</svg>