<?xml version="1.0" encoding="UTF-8"?>
<svg width="55px" height="66px" viewBox="0 0 55 66" version="1.1" xmlns="http://www.w3.org/2000/svg" xmlns:xlink="http://www.w3.org/1999/xlink">
    <title>icon-university</title>
    <defs>
        <linearGradient x1="15.4788713%" y1="0%" x2="84.5211287%" y2="100%" id="linearGradient-1">
            <stop stop-color="#1C0D3F" offset="0%"></stop>
            <stop stop-color="#1C0D3F" offset="100%"></stop>
        </linearGradient>
    </defs>
    <g id="Page-1" stroke="none" stroke-width="1" fill="none" fill-rule="evenodd">
        <g id="icon-university" fill="url(#linearGradient-1)" fill-rule="nonzero">
            <path d="M53.9933078,63.5334594 L53.9933078,65.0334594 L0.104318794,65.0334594 L0.104318794,63.5334594 L53.9933078,63.5334594 Z M15.8933081,23.9846558 L15.8933081,25.5596558 L12.5303081,25.5596558 L12.5303081,57.5516558 L15.8933081,57.5518433 L15.8933081,59.1268433 L0.193308054,59.1268433 L0.193308054,57.5518433 L3.60530805,57.5516558 L3.60530805,25.5596558 L0.193308054,25.5596558 L0.193308054,23.9846558 L15.8933081,23.9846558 Z M34.7433081,23.9846558 L34.7433081,25.5596558 L31.3803081,25.5596558 L31.3803081,57.5516558 L34.7433081,57.5518433 L34.7433081,59.1268433 L19.0433081,59.1268433 L19.0433081,57.5518433 L22.4553081,57.5516558 L22.4553081,25.5596558 L19.0433081,25.5596558 L19.0433081,23.9846558 L34.7433081,23.9846558 Z M53.7433081,23.9846558 L53.7433081,25.5596558 L50.3803081,25.5596558 L50.3803081,57.5516558 L53.7433081,57.5518433 L53.7433081,59.1268433 L38.0433081,59.1268433 L38.0433081,57.5518433 L41.4553081,57.5516558 L41.4553081,25.5596558 L38.0433081,25.5596558 L38.0433081,23.9846558 L53.7433081,23.9846558 Z M10.9553081,25.5596558 L5.18030805,25.5596558 L5.18030805,57.5516558 L10.9553081,57.5516558 L10.9553081,25.5596558 Z M29.8053081,25.5596558 L24.0303081,25.5596558 L24.0303081,57.5516558 L29.8053081,57.5516558 L29.8053081,25.5596558 Z M48.8053081,25.5596558 L43.0303081,25.5596558 L43.0303081,57.5516558 L48.8053081,57.5516558 L48.8053081,25.5596558 Z M26.3012626,0.249322993 C26.8120403,-0.0844018168 27.4672559,-0.0829994818 27.976652,0.25290877 L27.976652,0.25290877 L53.3286263,16.9706212 C54.6219779,17.8234889 54.0289628,19.8677124 52.4882001,19.8677124 L52.4882001,19.8677124 L1.5491732,19.8677124 C0.00503174156,19.8677124 -0.585493476,17.8162175 0.714209914,16.9670354 L0.714209914,16.9670354 L26.3012626,0.249322993 Z M27.1362259,1.57500001 L1.5491732,18.2927124 L52.4882001,18.2927124 L27.1362259,1.57500001 Z" id="Combined-Shape"></path>
        </g>
    </g>
</svg>