<svg fill="none" height="80" viewBox="0 0 80 80" width="80" xmlns="http://www.w3.org/2000/svg"><g clip-rule="evenodd" fill-rule="evenodd"><path d="m63.1873 15.2311c0-2.3472-1.9027-4.25-4.25-4.25h-50.09062l-.20592.0049c-2.25157.1074-4.04408 1.9669-4.04408 4.2451v37.9267l.0049.2059c.10741 2.2516 1.96693 4.0441 4.2451 4.0441.41421 0 .75-.3358.75-.75s-.33579-.75-.75-.75c-1.51878 0-2.75-1.2312-2.75-2.75v-37.9267l.00502-.1675c.08658-1.4408 1.28245-2.5825 2.74498-2.5825h50.09062l.1676.005c1.4407.0866 2.5824 1.2824 2.5824 2.745 0 .4142.3358.75.75.75.4143 0 .75-.3358.75-.75zm1.8407 1.555c2.3472 0 4.25 1.9028 4.25 4.25 0 .4143-.3358.75-.75.75s-.75-.3357-.75-.75c0-1.4625-1.1417-2.6584-2.5825-2.7449l-.1675-.0051h-50.0907c-1.4625 0-2.6584 1.1417-2.7449 2.5825l-.0051.1675v37.9268c0 1.5187 1.2313 2.75 2.75 2.75.4143 0 .75.3357.75.75 0 .4142-.3357.75-.75.75-2.2781 0-4.1376-1.7926-4.2451-4.0441l-.0049-.2059v-37.9268c0-2.2781 1.7926-4.1376 4.0441-4.2451l.2059-.0049zm6.0192 5.9301c2.3121 0 4.2417 1.7784 4.4608 4.0534l.0155.2147.005.2133v37.4649c0 2.3129-1.7779 4.2418-4.0534 4.4608l-.2147.0155-.2132.0051h-49.6628c-2.3125 0-4.2418-1.7777-4.4608-4.0533l-.0155-.2148-.0051-.2133v-.125-37.3399-.125c0-2.396 1.9604-4.3564 4.3564-4.3564h.125 49.5378zm-.125 46.1777h.122l.2072-.0049c2.1733-.1045 3.9185-1.8634 4.0223-4.0229l.0048-.2036v-.125l.0001-37.3369-.0001-.0016v37.3385c0 2.3972-1.9603 4.3564-4.3563 4.3564zm-52.6738-35.4025h-.125v.125zm3.136 34.1833h49.5378c1.7288 0 3.1338-1.4056 3.1366-3.1333v-.0039l-.001-30.7964h-55.685l.0006 30.9214c0 1.5379 1.1619 2.82 2.6622 2.9924l.1746.0149zm43.6496-23.4866c0-2.2349-1.8111-4.0464-4.0457-4.0464-2.2343 0-4.0458 1.8117-4.0458 4.0464l.0066.2324.022.2506c.0989.8296.4508 1.5995 1.0042 2.2162l.0705.0738-4.357 4.356-.1128-.076-.2205-.1322c-.5967-.3333-1.2613-.5112-1.9513-.5112l-.2343.0067-.2318.02c-.8444.0974-1.6273.4578-2.2517 1.0262l-.0896.0845-5.74-4.1.0507-.1057.0904-.2223c.1675-.4469.2548-.9069.2548-1.3764 0-2.2348-1.8109-4.0458-4.0457-4.0458s-4.0458 1.811-4.0458 4.0458l.0067.2332.0198.2306c.0964.8405.4531 1.6202 1.0163 2.2443l.0778.0813-4.431 5.17-.1025-.0681-.216-.1256c-.5847-.3167-1.2348-.4849-1.91-.4849-2.2344 0-4.0457 1.8113-4.0457 4.0464 0 2.2342 1.811 4.0451 4.0457 4.0451s4.0458-1.8109 4.0458-4.0451l-.0072-.2393-.0251-.266c-.0792-.6163-.3025-1.2008-.6504-1.7211l-.0806-.1134 4.581-5.344.1164.0553.2228.0909c.448.1684.91.2561 1.3814.2561l.2343-.0067.2316-.02c.8442-.0975 1.6269-.4579 2.2508-1.0262l.0887-.0864 5.741 4.101-.0495.1067-.0903.2224c-.1673.4469-.2545.9067-.2545 1.3756 0 2.2349 1.8111 4.0464 4.0457 4.0464 2.2349 0 4.0458-1.8111 4.0458-4.0464l-.0083-.257-.0245-.2538c-.0761-.5885-.2831-1.1479-.6045-1.6505l-.0849-.1234 4.532-4.531.1224.0579.2233.0912c.4487.169.9108.257 1.3828.257 2.2345 0 4.0457-1.8106 4.0457-4.0451zm-4.0457-3.7964c-2.0962 0-3.7958 1.6998-3.7958 3.7964 0 .9438.346 1.8322.958 2.52l.1585.1677.0001.177-4.5169 4.5157-.159.0147-.1954-.1338c-.6086-.3907-1.306-.6017-2.0336-.6017-.9519 0-1.8464.3532-2.5373.9767l-.1684.1615-.1619.0141-5.9091-4.2213-.0405-.1548.0928-.1978c.2116-.4825.3229-.9833.3229-1.4954 0-2.0967-1.699-3.7958-3.7957-3.7958s-3.7958 1.6991-3.7958 3.7958c0 .9473.3496 1.8378.9674 2.5284l.16.1684.007.1701-4.5761 5.3397-.1641.0228-.1923-.1278c-.5962-.3713-1.2784-.5708-1.9908-.5708-2.0964 0-3.7957 1.6994-3.7957 3.7964 0 2.0962 1.6991 3.7951 3.7957 3.7951s3.7958-1.6989 3.7958-3.7951c0-.7436-.2213-1.453-.6284-2.0692l-.1425-.2018.005-.1566 4.7068-5.4903.1481-.0317.1987.0936c.4833.2127.9863.3245 1.5006.3245.9515 0 1.8459-.3533 2.5362-.9767l.1682-.1614.1619-.0142 5.9104 4.2213.0405.1547-.0926.1978c-.2113.4828-.3225.9835-.3225 1.4949 0 2.0968 1.6991 3.7964 3.7957 3.7964 2.0968 0 3.7958-1.6992 3.7958-3.7964 0-.7265-.21-1.4202-.5982-2.027l-.1359-.199.0127-.1619 4.6669-4.6663.1417-.0247.1987.0937c.4845.2134.9875.3256 1.5024.3256 2.0964 0 3.7957-1.6987 3.7957-3.7951 0-2.0968-1.6991-3.7964-3.7957-3.7964zm-28.54 16.8656c0-1.5583-1.2677-2.826-2.826-2.826-1.5582 0-2.8253 1.2676-2.8253 2.826 0 1.5581 1.2669 2.8247 2.8253 2.8247 1.5581 0 2.826-1.2669 2.826-2.8247zm-2.826-2.576c-1.4201 0-2.5753 1.1556-2.5753 2.576 0 1.4201 1.155 2.5747 2.5753 2.5747 1.4201 0 2.576-1.155 2.576-2.5747 0-1.4203-1.1558-2.576-2.576-2.576zm24.6079-.0385c0-1.5583-1.2677-2.826-2.826-2.826-1.5582 0-2.8253 1.2676-2.8253 2.826s1.2671 2.826 2.8253 2.826c1.5579 0 2.826-1.2679 2.826-2.826zm-2.826-2.576c-1.4201 0-2.5753 1.1557-2.5753 2.576 0 1.4204 1.1552 2.576 2.5753 2.576 1.4199 0 2.576-1.156 2.576-2.576 0-1.4202-1.1557-2.576-2.576-2.576zm-9.3725-6.1361c0-1.5584-1.2672-2.826-2.8253-2.826-1.5583 0-2.826 1.2677-2.826 2.826 0 1.5577 1.2678 2.8253 2.826 2.8253 1.5581 0 2.8253-1.2675 2.8253-2.8253zm-2.8253-2.576c-1.4203 0-2.576 1.1557-2.576 2.576 0 1.4197 1.1558 2.5753 2.576 2.5753 1.42 0 2.5753-1.1555 2.5753-2.5753 0-1.4204-1.1552-2.576-2.5753-2.576zm24.6072.8334c0-1.5584-1.2671-2.8259-2.8253-2.8259-1.5581 0-2.826 1.268-2.826 2.8259 0 1.5577 1.2677 2.8247 2.826 2.8247 1.5584 0 2.8253-1.2665 2.8253-2.8247zm-2.8253-2.5759c-1.42 0-2.576 1.1561-2.576 2.5759 0 1.4196 1.1557 2.5747 2.576 2.5747s2.5753-1.1546 2.5753-2.5747c0-1.4203-1.1552-2.5759-2.5753-2.5759zm-39.6039-17.6756h-.125c-1.7301 0-3.136 1.4078-3.136 3.136v5.199l.0001-5.0775.0051-.1811c.093-1.658 1.4257-2.979 3.0717-3.0712zm49.6628.25h-49.6628c-1.5377 0-2.819 1.1621-2.9912 2.6623l-.0149.1746-.0049.1741-.0006 5.0735h55.685l.0003-5.0735c0-1.6004-1.2561-2.9141-2.8343-3.0059zm-46.5275 4.3179c0-.5502-.4461-.9963-.9963-.9963-.0217 0-.0433.0007-.0646.0021-.02-.0014-.0401-.0021-.0604-.0021-.4812 0-.8713.3901-.8713.8713 0 .0203.0007.0405.0021.0604-.0014.0214-.0021.0429-.0021.0646 0 .5502.4461.9963.9963.9963s.9963-.4461.9963-.9963zm-.2524-.0601c-.0317.4295-.3746.7724-.804.804.0198.0016.0399.0024.0601.0024.4121 0 .7463-.3341.7463-.7463 0-.0202-.0008-.0402-.0024-.0601zm3.6125-.9362c.5502 0 .9962.4461.9962.9963s-.446.9963-.9962.9963c-.5503 0-.9963-.4461-.9963-.9963 0-.0217.0007-.0432.0021-.0646-.0014-.0199-.0021-.0401-.0021-.0604 0-.4812.3901-.8713.8713-.8713.0203 0 .0404.0007.0604.0021.0213-.0014.0429-.0021.0646-.0021zm.7439.9362c-.0317.4295-.3746.7724-.804.804.0198.0016.0398.0024.0601.0024.4121 0 .7462-.3341.7462-.7463 0-.0202-.0008-.0402-.0023-.0601z" fill="#1b127d"/><path d="m60.8629 40.1418c-2.1651 0-3.9208 1.7556-3.9208 3.9214 0 1.0847.4406 2.0661 1.1532 2.7762l-4.5169 4.5157c-.6473-.4717-1.4382-.7574-2.2996-.7574-1.0959 0-2.0836.4512-2.7949 1.1756l-5.9091-4.2213c.2638-.5278.4275-1.1146.4275-1.7463 0-2.1657-1.755-3.9207-3.9207-3.9207-2.1658 0-3.9208 1.755-3.9208 3.9207 0 1.091.4469 2.0743 1.1644 2.7856l-4.576 5.3397c-.6379-.4512-1.4121-.7194-2.2523-.7194-2.1651 0-3.9207 1.755-3.9207 3.9213 0 2.1651 1.755 3.9201 3.9207 3.9201 2.1658 0 3.9208-1.755 3.9208-3.9201 0-.8849-.3025-1.6909-.796-2.3462l4.7067-5.4903c.5303.2664 1.1196.43 1.7526.43 1.0953 0 2.0829-.4511 2.7936-1.1756l5.9104 4.2214c-.2632.5277-.4269 1.1146-.4269 1.7456 0 2.1658 1.755 3.9214 3.9207 3.9214 2.1658 0 3.9208-1.755 3.9208-3.9214 0-.8631-.2863-1.6516-.758-2.2995l4.6669-4.6663c.5302.2664 1.1196.4313 1.7544.4313 2.1651 0 3.9207-1.7544 3.9207-3.9201 0-2.1658-1.755-3.9214-3.9207-3.9214zm-31.366 19.6902c-1.4892 0-2.7003-1.2104-2.7003-2.6997s1.2111-2.701 2.7003-2.701c1.4893 0 2.701 1.2117 2.701 2.701s-1.2123 2.6997-2.701 2.6997zm6.8831-14.0263c0 1.4886 1.2117 2.7003 2.701 2.7003 1.4892 0 2.7003-1.2117 2.7003-2.7003 0-1.4893-1.2111-2.701-2.7003-2.701-1.4893 0-2.701 1.2117-2.701 2.701zm14.8988 11.4131c-1.4892 0-2.7003-1.2117-2.7003-2.701 0-1.4892 1.2111-2.7009 2.7003-2.7009 1.4893 0 2.701 1.2117 2.701 2.7009 0 1.4893-1.2123 2.701-2.701 2.701zm6.8831-13.1556c0 1.4886 1.2117 2.6997 2.701 2.6997 1.4892 0 2.7003-1.2105 2.7003-2.6997 0-1.4893-1.2111-2.701-2.7003-2.701-1.4893 0-2.701 1.2123-2.701 2.701z" fill="#ed26b7"/></g></svg>