<svg fill="none" height="80" viewBox="0 0 80 80" width="80" xmlns="http://www.w3.org/2000/svg"><path d="m19.0457 17.9649.8964.086-.1927-.8797c-.1387-.633-.2117-1.2895-.2117-1.963 0-5.24794 4.4587-9.55207 10.0217-9.55207 4.7701 0 8.736 3.1703 9.7623 7.38257l.2436 1.0001.8039-.6429c2.8516-2.2808 6.5282-3.65642 10.5462-3.65642 9.1014 0 16.4285 7.04642 16.4285 15.67712 0 8.3032-6.78 15.1388-15.3993 15.6469l-.513.0302h-33.618c-6.7424 0-12.15735-5.2182-12.15735-11.5937 0-6.3756 5.41495-11.5938 12.15735-11.5938.4161 0 .8271.0199 1.2321.0587z" stroke="#1b127d" stroke-width="1.3125"/><path d="m75.0001 59.6875c0 8.4569-8.2268 15.3125-18.375 15.3125-10.1483 0-18.3751-6.8556-18.3751-15.3125s8.2268-15.3126 18.3751-15.3126c10.1482 0 18.375 6.8557 18.375 15.3126z" fill="#fff"/><path clip-rule="evenodd" d="m56.6251 73.6875c9.6576 0 17.0625-6.4819 17.0625-14s-7.4049-14.0001-17.0625-14.0001c-9.6577 0-17.0626 6.482-17.0626 14.0001s7.4049 14 17.0626 14zm0 1.3125c10.1482 0 18.375-6.8556 18.375-15.3125s-8.2268-15.3126-18.375-15.3126c-10.1483 0-18.3751 6.8557-18.3751 15.3126s8.2268 15.3125 18.3751 15.3125z" fill="#ed26b7" fill-rule="evenodd"/><path d="m75.0001 53.5624c0 8.4569-8.2268 15.3126-18.375 15.3126-10.1483 0-18.3751-6.8557-18.3751-15.3126 0-8.4568 8.2268-15.3125 18.3751-15.3125 10.1482 0 18.375 6.8557 18.375 15.3125z" fill="#fff"/><path clip-rule="evenodd" d="m56.6251 67.5625c9.6576 0 17.0625-6.4819 17.0625-14.0001 0-7.5181-7.4049-14-17.0625-14-9.6577 0-17.0626 6.4819-17.0626 14 0 7.5182 7.4049 14.0001 17.0626 14.0001zm0 1.3125c10.1482 0 18.375-6.8557 18.375-15.3126 0-8.4568-8.2268-15.3125-18.375-15.3125-10.1483 0-18.3751 6.8557-18.3751 15.3125 0 8.4569 8.2268 15.3126 18.3751 15.3126z" fill="#ed26b7" fill-rule="evenodd"/><path d="m75.0001 47.4374c0 8.4569-8.2268 15.3126-18.375 15.3126-10.1483 0-18.3751-6.8557-18.3751-15.3126s8.2268-15.3125 18.3751-15.3125c10.1482 0 18.375 6.8556 18.375 15.3125z" fill="#fff"/><path clip-rule="evenodd" d="m56.6251 61.4375c9.6576 0 17.0625-6.482 17.0625-14.0001s-7.4049-14-17.0625-14c-9.6577 0-17.0626 6.4819-17.0626 14s7.4049 14.0001 17.0626 14.0001zm0 1.3125c10.1482 0 18.375-6.8557 18.375-15.3126s-8.2268-15.3125-18.375-15.3125c-10.1483 0-18.3751 6.8556-18.3751 15.3125s8.2268 15.3126 18.3751 15.3126z" fill="#ed26b7" fill-rule="evenodd"/></svg>