<?xml version="1.0" encoding="UTF-8"?>
<svg width="16px" height="14px" viewBox="0 0 16 14" version="1.1" xmlns="http://www.w3.org/2000/svg" xmlns:xlink="http://www.w3.org/1999/xlink">
    <g id="Page-1" stroke="none" stroke-width="1" fill="none" fill-rule="evenodd">
        <g id="Group" transform="translate(-365.000000, -162.000000)">
            <g transform="translate(353.000000, 153.500000)">
                <path d="M26.796875,21.703125 C27.1302083,21.703125 27.4140625,21.5859375 27.6484375,21.3515625 C27.8828125,21.1171875 28,20.8333333 28,20.5 L28,14.8984375 C28,14.7890625 27.9609375,14.6953125 27.8828125,14.6171875 C27.8046875,14.5390625 27.7109375,14.5 27.6015625,14.5 C27.4921875,14.5 27.3984375,14.5390625 27.3203125,14.6171875 C27.2421875,14.6953125 27.203125,14.7890625 27.203125,14.8984375 L27.203125,20.5 C27.203125,20.609375 27.1640625,20.703125 27.0859375,20.78125 C27.0078125,20.859375 26.9114583,20.8984375 26.796875,20.8984375 L13.203125,20.8984375 C13.0885417,20.8984375 12.9921875,20.859375 12.9140625,20.78125 C12.8359375,20.703125 12.796875,20.609375 12.796875,20.5 L12.796875,10.1015625 C12.796875,9.9921875 12.8359375,9.8984375 12.9140625,9.8203125 C12.9921875,9.7421875 13.0885417,9.703125 13.203125,9.703125 L22,9.703125 C22.109375,9.703125 22.203125,9.6640625 22.28125,9.5859375 C22.359375,9.5078125 22.3984375,9.41145833 22.3984375,9.296875 C22.3984375,9.1875 22.359375,9.09375 22.28125,9.015625 C22.203125,8.9375 22.109375,8.8984375 22,8.8984375 L13.203125,8.8984375 C12.8697917,8.8984375 12.5859375,9.015625 12.3515625,9.25 C12.1171875,9.484375 12,9.76822917 12,10.1015625 L12,20.5 C12,20.8333333 12.1171875,21.1171875 12.3515625,21.3515625 C12.5859375,21.5859375 12.8697917,21.703125 13.203125,21.703125 L26.796875,21.703125 Z M16.3984375,17.703125 C16.5078125,17.703125 16.6015625,17.6640625 16.6796875,17.5859375 C16.7578125,17.5078125 16.796875,17.4114583 16.796875,17.296875 L16.796875,16.8984375 C16.796875,16.3463542 16.9127604,15.828125 17.1445312,15.34375 C17.3763021,14.859375 17.6914062,14.4361979 18.0898438,14.0742188 C18.4882812,13.7122396 18.9544271,13.4257812 19.4882812,13.2148438 C20.0221354,13.0039062 20.59375,12.8984375 21.203125,12.8984375 L26.234375,12.8984375 L23.71875,15.4140625 C23.640625,15.4921875 23.6015625,15.5872396 23.6015625,15.6992188 C23.6015625,15.8111979 23.640625,15.90625 23.71875,15.984375 C23.7552083,16.0208333 23.7981771,16.0494792 23.8476562,16.0703125 C23.8971354,16.0911458 23.9479167,16.1015625 24,16.1015625 C24.0520833,16.1015625 24.1028646,16.0911458 24.1523438,16.0703125 C24.2018229,16.0494792 24.2447917,16.0208333 24.28125,15.984375 L27.484375,12.78125 C27.5625,12.703125 27.6015625,12.609375 27.6015625,12.5 C27.6015625,12.390625 27.5625,12.296875 27.484375,12.21875 L24.28125,9.015625 C24.203125,8.9375 24.109375,8.8984375 24,8.8984375 C23.890625,8.8984375 23.796875,8.9375 23.71875,9.015625 C23.640625,9.09375 23.6015625,9.18880208 23.6015625,9.30078125 C23.6015625,9.41276042 23.640625,9.5078125 23.71875,9.5859375 L26.234375,12.1015625 L21.203125,12.1015625 C20.8541667,12.1015625 20.5143229,12.1315104 20.1835938,12.1914062 C19.8528646,12.2513021 19.5325521,12.3411458 19.2226562,12.4609375 C18.9127604,12.5807292 18.6158854,12.7265625 18.3320312,12.8984375 C18.0481771,13.0703125 17.7838542,13.2708333 17.5390625,13.5 C17.2890625,13.7239583 17.0690104,13.9674479 16.8789062,14.2304688 C16.6888021,14.4934896 16.5286458,14.7695312 16.3984375,15.0585938 C16.2682292,15.3476562 16.1692708,15.6471354 16.1015625,15.9570312 C16.0338542,16.2669271 16,16.5807292 16,16.8984375 L16,17.296875 C16,17.4114583 16.0390625,17.5078125 16.1171875,17.5859375 C16.1953125,17.6640625 16.2890625,17.703125 16.3984375,17.703125 Z" id="eexport" fill="#000000" fill-rule="nonzero"></path>
            </g>
        </g>
    </g>
</svg>