<!-- (C) 2022 GoodData Corporation -->
<svg width="21" height="25" fill="none" xmlns="http://www.w3.org/2000/svg"><path d="M4 15.4956c0 .0423.00635.0846.01904.127.01693.038.04232.074.07617.1079.06348.0634.13965.0952.22852.0952s.16504-.0318.22852-.0952l5.62405-5.6241 5.6176 5.6241c.0635.0634.1397.0952.2286.0952.0931 0 .1713-.0318.2348-.0952.0635-.0635.0952-.1397.0952-.2285 0-.0931-.0317-.1714-.0952-.2349l-5.8525-5.8462c-.0635-.06348-.1397-.09522-.2285-.09522-.0889 0-.1651.03174-.22855.09522l-5.85254 5.8462c-.03385.0338-.05924.0719-.07617.1142-.01269.0381-.01904.0762-.01904.1143Z" fill="#1C0D3F"/><path d="m4.01904 15.6226-.23945.0718.00456.0152.00644.0145.22845-.1015Zm.07617.1079.17678-.1768-.17678.1768Zm6.08109-5.6241.1768-.17663-.1767-.17698-.17691.17688.17681.17673Zm5.6176 5.6241-.1768.1766.0001.0001.1767-.1767Zm.4634-.4634.1768-.1768-.0001-.0001-.1767.1769Zm-5.8525-5.8462-.1768.17678.0001.00009.1767-.17687Zm-.45705 0 .17665.17687.0001-.00009-.17675-.17678Zm-5.85254 5.8462-.17668-.1769-.00009.0001.17677.1768Zm-.07617.1142-.23212-.0928-.00272.0068-.00233.007.23717.079Zm-.26904.1143c0 .0677.01021.1342.02959.1988l.47891-.1437c-.00601-.02-.0085-.0382-.0085-.0551h-.5Zm.04059.2285c.0311.07.07548.1308.12785.1831l.35355-.3535c-.01534-.0154-.02174-.0265-.02449-.0327l-.45691.2031Zm.12785.1831c.10982.1099.24937.1685.40529.1685v-.5c-.02181 0-.03461-.0049-.05174-.022l-.35355.3535Zm.40529.1685c.15592 0 .29547-.0586.40529-.1685l-.35355-.3535c-.01713.0171-.02993.022-.05174.022v.5Zm.40529-.1685 5.62398-5.624-.35351-.35353-5.62402 5.62403.35355.3535Zm5.27037-5.6241 5.61771 5.624.3537-.3533-5.6177-5.62403-.35371.35333Zm5.61781 5.6241c.1098.1099.2493.1685.4053.1685v-.5c-.0218 0-.0347-.0049-.0518-.022l-.3535.3535Zm.4053.1685c.1566 0 .2993-.0562.4116-.1685l-.3536-.3535c-.0146.0147-.0285.022-.058.022v.5Zm.4116-.1685c.1098-.1098.1684-.2493.1684-.4052h-.5c0 .0218-.0048.0346-.022.0517l.3536.3535Zm.1684-.4052c0-.1567-.0561-.2994-.1684-.4117l-.3536.3536c.0147.0147.022.0285.022.0581h.5Zm-.1685-.4118-5.8525-5.84617-.3534.35374 5.8525 5.84623.3534-.3538Zm-5.8524-5.84608c-.1099-.10982-.2494-.16844-.4053-.16844v.5c.0218 0 .0346.00487.0517.022l.3536-.35356Zm-.4053-.16844c-.156 0-.2955.05862-.40532.16844l.35352.35356c.0172-.01713.03-.022.0518-.022v-.5Zm-.40523.16835L3.91853 15.0902l.35337.3538 5.8525-5.84623-.35333-.35374ZM3.91844 15.0903c-.05657.0566-.10138.1229-.13152.1982l.46424.1857c.00372-.0093.00969-.0192.02083-.0303l-.35355-.3536Zm-.13657.212c-.02073.0622-.03187.1269-.03187.1933h.5c0-.0098.00155-.0212.00621-.0352l-.47434-.1581Z" fill="#1C0D3F"/></svg>
