<!-- (C) 2022 GoodData Corporation -->
<svg width="13" height="13" fill="none" xmlns="http://www.w3.org/2000/svg"><path d="M8.56346.661114C8.6684.556171 8.80208.5 8.95117.5h3.00003c.1491 0 .2827.056171.3877.161114.1074.107384.1611.244078.1611.393576v3c0 .14909-.0562.28277-.1611.38771-.105.10494-.2386.16112-.3877.16112-.1491 0-.2828-.05618-.3877-.16112-.105-.10494-.1612-.23862-.1612-.38771v-1.6538L5.13771 8.64357c-.05215.0521-.1133.0911-.17929.11808-.06632.02875-.13654.04304-.20842.04304-.07325 0-.14374-.0148-.21004-.04132l-.00875-.0035c-.06335-.02816-.12-.06737-.16892-.1163-.10495-.10494-.16112-.23862-.16112-.38771 0-.1495.05373-.28619.16112-.39357L10.643 1.60352H8.95117c-.14909 0-.28277-.05618-.38771-.16112-.10494-.10494-.16112-.23862-.16112-.38771 0-.149498.05373-.286192.16112-.393576Z" fill="#ED26B7"/><path d="M.336895 2.03807c.222963-.22297.499567-.3369.815445-.3369h5c.14909 0 .28278.05617.38772.16112.10494.10494.16111.23862.16111.38771 0 .1495-.05373.28619-.16111.39357-.10494.10495-.23863.16112-.38772.16112h-5c-.02238 0-.03021.00486-.04002.01467-.01224.01224-.01466.01918-.01466.03416v8.99998c0 .015.00242.0219.01466.0342.00981.0098.01764.0146.04002.0146h8.99996c.015 0 .022-.0024.0342-.0146.0122-.0123.0147-.0192.0147-.0342V6.85352c0-.14909.0561-.28278.1611-.38772.1049-.10494.2386-.16111.3877-.16111.1491 0 .2828.05617.3877.16111.105.10494.1611.23863.1611.38772v4.99998c0 .3132-.1147.5875-.3369.8096-.2221.2221-.4964.3369-.8096.3369H1.15234c-.315878 0-.592482-.1139-.815445-.3369C.114765 12.441 0 12.1667 0 11.8535V2.85352c0-.31589.113932-.59249.336895-.81545Z" fill="#ED26B7"/></svg>
