<svg width="16" height="16" viewBox="0 0 16 16" fill="none" xmlns="http://www.w3.org/2000/svg">
<path d="M8 16C3.582 16 0 12.418 0 8C0 3.582 3.582 0 8 0C12.418 0 16 3.582 16 8C16 12.418 12.418 16 8 16ZM8.808 12.6667L8.67467 6.66667H7.32533L7.192 12.6667H8.808ZM8.002 3.20733C7.45 3.20733 7.12 3.50133 7.12 3.99533C7.12 4.49867 7.44933 4.79267 8.002 4.79267C8.55 4.79267 8.87933 4.49867 8.87933 3.99533C8.87933 3.50133 8.55 3.20733 8.002 3.20733Z" fill="white"/>
<path d="M8 16C3.582 16 0 12.418 0 8C0 3.582 3.582 0 8 0C12.418 0 16 3.582 16 8C16 12.418 12.418 16 8 16ZM8.808 12.6667L8.67467 6.66667H7.32533L7.192 12.6667H8.808ZM8.002 3.20733C7.45 3.20733 7.12 3.50133 7.12 3.99533C7.12 4.49867 7.44933 4.79267 8.002 4.79267C8.55 4.79267 8.87933 4.49867 8.87933 3.99533C8.87933 3.50133 8.55 3.20733 8.002 3.20733Z" fill="#1C0D3F" fill-opacity="0.3"/>
</svg>
