<svg width="23" height="23" viewBox="0 0 23 23" fill="none" xmlns="http://www.w3.org/2000/svg">
<g clip-path="url(#clip0_734_9543)">
<path d="M5.20607 14.8044C5.20607 16.0689 4.18404 17.091 2.9195 17.091C1.65496 17.091 0.632935 16.0689 0.632935 14.8044C0.632935 13.5398 1.65496 12.5178 2.9195 12.5178H5.20607V14.8044ZM6.34935 14.8044C6.34935 13.5398 7.37138 12.5178 8.63592 12.5178C9.90046 12.5178 10.9225 13.5398 10.9225 14.8044V20.5208C10.9225 21.7853 9.90046 22.8074 8.63592 22.8074C7.37138 22.8074 6.34935 21.7853 6.34935 20.5208V14.8044Z" fill="#1C0D3F"/>
<path d="M8.63566 5.62331C7.37112 5.62331 6.3491 4.60128 6.3491 3.33674C6.3491 2.0722 7.37112 1.05017 8.63566 1.05017C9.90021 1.05017 10.9222 2.0722 10.9222 3.33674V5.62331H8.63566ZM8.63566 6.78391C9.90021 6.78391 10.9222 7.80594 10.9222 9.07048C10.9222 10.335 9.90021 11.357 8.63566 11.357H2.90192C1.63738 11.357 0.615356 10.335 0.615356 9.07048C0.615356 7.80594 1.63738 6.78391 2.90192 6.78391H8.63566Z" fill="#1C0D3F"/>
<path d="M17.8025 9.07048C17.8025 7.80594 18.8245 6.78391 20.089 6.78391C21.3536 6.78391 22.3756 7.80594 22.3756 9.07048C22.3756 10.335 21.3536 11.357 20.089 11.357H17.8025V9.07048ZM16.6592 9.07048C16.6592 10.335 15.6372 11.357 14.3726 11.357C13.1081 11.357 12.0861 10.335 12.0861 9.07048V3.33674C12.0861 2.0722 13.1081 1.05017 14.3726 1.05017C15.6372 1.05017 16.6592 2.0722 16.6592 3.33674V9.07048Z" fill="#1C0D3F"/>
<path d="M14.3726 18.2344C15.6372 18.2344 16.6592 19.2564 16.6592 20.5209C16.6592 21.7855 15.6372 22.8075 14.3726 22.8075C13.1081 22.8075 12.0861 21.7855 12.0861 20.5209V18.2344H14.3726ZM14.3726 17.0911C13.1081 17.0911 12.0861 16.0691 12.0861 14.8045C12.0861 13.54 13.1081 12.5179 14.3726 12.5179H20.1064C21.3709 12.5179 22.3929 13.54 22.3929 14.8045C22.3929 16.0691 21.3709 17.0911 20.1064 17.0911H14.3726Z" fill="#1C0D3F"/>
</g>
<defs>
<clipPath id="clip0_734_9543">
<rect width="21.9995" height="21.9995" fill="white" transform="translate(0.496216 0.946411)"/>
</clipPath>
</defs>
</svg>
