<svg width="182" height="40" viewBox="0 0 182 40" fill="none" xmlns="http://www.w3.org/2000/svg">
<path d="M35.2037 25.0974C35.0897 20.1201 32.4034 16.1694 28.3023 14.6252V5.9625C27.2667 5.28544 26.1647 4.72568 25.0143 4.29533V22.9319C25.0143 26.6238 23.3398 28.2724 20.6488 28.2724C18.029 28.2724 15.8375 26.2485 15.8375 22.864C15.8375 19.0863 18.7162 16.7793 22.4856 16.7793C22.8347 16.7728 23.1902 16.7914 23.5393 16.8473V13.5493C23.1902 13.4878 22.841 13.4571 22.4856 13.4636C16.8913 13.4636 12.5076 16.971 12.5076 22.8712C12.5076 28.5442 16.4638 31.5711 20.872 31.5711C22.9614 31.5711 24.7681 30.8447 26.015 29.5957C27.2612 28.3468 28.3158 26.5437 28.3158 23.3752V18.2127C30.592 19.3759 31.9648 22.1934 31.9711 25.4177C31.9593 31.4902 26.4489 36.622 19.9877 36.622C19.8373 36.622 19.7225 36.622 19.572 36.6155C15.14 36.6098 11.244 34.9726 8.08818 31.7426C5.81754 29.417 4.26419 26.4572 3.63794 23.2393C3.01169 20.015 3.33075 16.6806 4.56504 13.6407C5.79379 10.6073 7.8768 8.01068 10.5504 6.18334C13.2241 4.356 16.368 3.38369 19.5831 3.38369V0C17.0116 0 14.4647 0.516894 12.0919 1.51995C9.71912 2.523 7.55773 3.99927 5.73916 5.85168C2.06559 9.59857 0 14.6866 0 19.9907C0 25.2939 2.05926 30.3828 5.72649 34.1362C9.39373 37.8895 14.3736 40 19.5649 40H19.9806C21.5767 40 23.1664 39.7476 24.696 39.2615C24.7024 39.2615 24.7079 39.255 24.7143 39.255C26.9239 38.5537 28.9476 37.3597 30.6458 35.7605C33.5783 32.9916 35.1926 29.3312 35.2045 25.4363C35.2101 25.4234 35.2037 25.1038 35.2037 25.0974Z" fill="#1C0D3F"/>
<path d="M40.4425 19.6372C40.4425 14.0565 44.466 9.56463 50.1149 9.12862C50.4079 9.10112 50.7008 9.10112 51.0206 9.10112C51.3136 9.10112 51.6334 9.10112 51.9002 9.12862C55.8169 9.42792 58.4018 11.633 59.3875 12.9669L56.7764 15.1178C55.6039 13.5388 53.7655 12.3408 51.0214 12.3141C46.9718 12.3141 44.147 15.4721 44.147 19.6097C44.147 23.7748 46.971 26.987 51.0214 26.987C53.2066 26.9595 54.9119 26.3334 56.0837 25.4355V21.8965H50.8876V18.7927H59.5736V27.0412C57.9482 28.5927 55.0972 30.1992 51.0206 30.1992C44.8658 30.1725 40.4425 25.4905 40.4425 19.6372ZM116.479 29.7867V9.55978H123.38C125.832 9.55978 127.964 9.88658 129.882 11.1113C132.68 12.9079 134.411 16.0659 134.411 19.6599C134.411 23.2806 132.679 26.4386 129.882 28.2352C127.964 29.4599 125.832 29.7867 123.38 29.7867H116.479ZM120.13 26.5737H123.247C124.953 26.5737 126.391 26.4378 127.804 25.5116C129.589 24.3136 130.682 22.1085 130.682 19.6316C130.682 17.2089 129.589 15.0038 127.804 13.8058C126.391 12.8804 124.953 12.717 123.221 12.717H120.13V26.5737ZM61.6257 22.2775C61.6257 17.9215 65.0095 14.3825 69.6189 14.3825C74.2821 14.3825 77.639 17.9215 77.639 22.2775C77.639 26.6335 74.2821 30.1992 69.6189 30.1992C64.9826 30.2 61.6257 26.661 61.6257 22.2775ZM136.143 22.3269C136.143 17.9709 139.047 14.4319 143.497 14.4319C145.895 14.4319 147.547 15.4665 148.453 16.6095H148.48L148.64 14.8671H151.971L151.998 29.8126H148.72L148.56 27.9343L148.507 27.9068C147.655 29.159 145.923 30.2478 143.551 30.2478C139.021 30.2494 136.143 26.6829 136.143 22.3269ZM74.0683 22.3325C74.0683 19.6372 72.336 17.4863 69.6189 17.4863C66.9547 17.4863 65.1694 19.6372 65.1694 22.3325C65.1694 24.9461 66.9547 27.0695 69.6189 27.0695C72.3368 27.0695 74.0683 24.9461 74.0683 22.3325ZM148.533 22.3269C148.533 19.6591 146.827 17.5357 144.109 17.5357C141.498 17.5357 139.686 19.6591 139.686 22.3269C139.686 24.9947 141.498 27.1181 144.109 27.1181C146.828 27.1189 148.533 24.9947 148.533 22.3269ZM157.485 27.8809C156.739 26.8738 156.526 25.6758 156.526 24.0968V17.89H153.808V14.8679H156.526V9.28717C156.633 9.31467 156.713 9.34136 156.819 9.39637C157.351 9.61397 157.911 9.83156 158.417 10.1042C158.977 10.4035 159.51 10.7028 160.043 11.0296V14.8679H164.546V17.89H160.043V23.8792C160.043 24.8596 160.176 25.6216 160.575 26.1118C160.948 26.6287 161.561 26.9288 162.334 26.9288C163.213 26.9288 163.906 26.6295 164.305 26.3302L165.611 28.8896C164.971 29.4065 163.559 30.0601 161.854 30.0601C160.07 30.0585 158.418 29.4057 157.485 27.8809ZM79.3713 22.2775C79.3713 17.9215 82.7281 14.3825 87.3644 14.3825C92.0007 14.3825 95.3845 17.9215 95.3845 22.2775C95.3845 26.6335 92.0007 30.1992 87.3644 30.1992C82.7012 30.2 79.3713 26.661 79.3713 22.2775ZM91.8139 22.3325C91.8139 19.6372 90.0555 17.4863 87.3644 17.4863C84.6734 17.4863 82.915 19.6372 82.915 22.3325C82.915 24.9461 84.6734 27.0695 87.3644 27.0695C90.0555 27.0695 91.8139 24.9461 91.8139 22.3325ZM166.145 22.3269C166.145 17.9709 169.049 14.4319 173.499 14.4319C175.897 14.4319 177.549 15.4665 178.455 16.6095H178.482L178.642 14.8671H181.973L182 29.8126H178.722L178.562 27.9343L178.509 27.9068C177.657 29.159 175.925 30.2478 173.553 30.2478C169.023 30.2494 166.145 26.6829 166.145 22.3269ZM178.535 22.3269C178.535 19.6591 176.83 17.5357 174.112 17.5357C171.501 17.5357 169.689 19.6591 169.689 22.3269C169.689 24.9947 171.501 27.1181 174.112 27.1181C176.83 27.1189 178.535 24.9947 178.535 22.3269ZM101.912 29.764C98.9013 28.7019 97.0899 25.7348 97.0899 22.2775C97.0899 17.9215 99.9939 14.3825 104.444 14.3825C106.842 14.3825 108.494 15.4171 109.4 16.5601H109.427V7.78906L109.933 7.97997C110.519 8.22507 111.079 8.47017 111.612 8.76947C112.064 9.01457 112.517 9.25967 112.944 9.55896V29.764H109.666L109.506 27.8857L109.453 27.8582C108.921 28.6202 108.068 29.328 106.948 29.764C106.229 30.0366 105.403 30.1992 104.497 30.1992C103.565 30.2 102.685 30.0366 101.912 29.764ZM109.479 22.2775C109.479 19.6097 107.774 17.4863 105.056 17.4863C102.445 17.4863 100.633 19.6097 100.633 22.2775C100.633 24.9453 102.445 27.0687 105.056 27.0687C107.774 27.0695 109.479 24.9461 109.479 22.2775Z" fill="#1C0D3F"/>
</svg>
